<svg xmlns="http://www.w3.org/2000/svg" viewBox="0 0 64 64" shape-rendering="crispEdges">
  <rect width="64" height="64" fill="#e9dcc0"/>
  <!-- cozy window -->
  <rect x="15" y="12" width="34" height="32" fill="#2a2018"/>
  <rect x="17" y="14" width="30" height="28" fill="#6d553e"/>
  <rect x="17" y="14" width="30" height="3" fill="#ab8c66"/>
  <rect x="17" y="14" width="3" height="28" fill="#8d7053"/>
  <rect x="44" y="14" width="3" height="28" fill="#48392c"/>
  <!-- glass: sky to peach horizon -->
  <rect x="20" y="17" width="24" height="22" fill="#a9c4dd"/>
  <rect x="20" y="29" width="24" height="6" fill="#c7d3da"/>
  <rect x="20" y="35" width="24" height="4" fill="#ecc79f"/>
  <rect x="38" y="20" width="5" height="5" fill="#fff4d4"/>
  <rect x="24" y="22" width="7" height="2" fill="#f7f0df"/>
  <!-- muntins -->
  <rect x="31" y="17" width="2" height="22" fill="#6d553e"/>
  <rect x="20" y="27" width="24" height="2" fill="#6d553e"/>
  <!-- sill + a little plant -->
  <rect x="13" y="44" width="38" height="4" fill="#2a2018"/>
  <rect x="14" y="44" width="36" height="2" fill="#9a7d5b"/>
  <rect x="27" y="38" width="2" height="6" fill="#5f7a52"/>
  <rect x="30" y="35" width="2" height="9" fill="#6e8a5e"/>
  <rect x="30" y="35" width="1" height="3" fill="#9bb682"/>
  <rect x="33" y="38" width="2" height="6" fill="#5f7a52"/>
  <rect x="26" y="44" width="10" height="6" fill="#2a2018"/>
  <rect x="27" y="45" width="8" height="4" fill="#bd6d43"/>
  <rect x="27" y="45" width="2" height="4" fill="#d98a5c"/>
</svg>
